<svg id="Layer_1" data-name="Layer 1" xmlns="http://www.w3.org/2000/svg" viewBox="0 0 1520.82 1512.65"><defs><style>.cls-1,.cls-4{fill:#fff;}.cls-2{fill:#ff5804;}.cls-3{fill:#29abe2;}.cls-4{stroke:#000;stroke-miterlimit:10;}</style></defs><path class="cls-1" d="M328.72,194.83,200.89,1181.72A649.65,649.65,0,0,1,30.74,742.47C30.74,512.89,149.39,311,328.72,194.83Z"/><path class="cls-2" d="M1194.57,1146.6l1.36,4.35-65,85.31-4.87-15.52-98.21-313.35-187.44,468c-3.59.89-7.2,1.76-10.81,2.58a652.38,652.38,0,0,1-117.31,15.94q-14.64.64-29.45.65h-1q-4.38,0-8.75-.07t-8.6-.18L438,570.07l-82.23,736.66q-8.21-4.76-16.25-9.75h0a655.3,655.3,0,0,1-109.07-84.84l0,0L200,1188.44l.87-6.72L328.72,194.83q2.64-1.71,5.3-3.4a650.32,650.32,0,0,1,85.57-45.71l49.65-19.53.11,0q9.4-3.25,18.94-6.23l1-.3,277,1007.52L759.67,94.89a649.49,649.49,0,0,1,128.6,28.55l6.92,730.73,239.29-582a655.17,655.17,0,0,1,99.18,121.23L1079.38,778.62Z"/><path class="cls-3" d="M469.24,126.19l-49.65,19.53Q443.91,135,469.24,126.19Z"/><path class="cls-1" d="M664.45,1394.28a648.58,648.58,0,0,1-308.64-87.55L438,570.07Z"/><path class="cls-1" d="M766.23,1127.14l-277-1007.52A651.94,651.94,0,0,1,682.8,90.41a659,659,0,0,1,76.87,4.48Z"/><path class="cls-1" d="M1134.48,272.18l-239.29,582-6.92-730.73A651.83,651.83,0,0,1,1134.48,272.18Z"/><path class="cls-1" d="M1126,1220.74a650.64,650.64,0,0,1-285.65,154.62l187.44-468Z"/><path class="cls-1" d="M1334.86,742.47a649.3,649.3,0,0,1-140.29,404.13l-115.19-368,154.28-385.21A649,649,0,0,1,1334.86,742.47Z"/><path class="cls-1" d="M334,191.43q-2.65,1.69-5.3,3.4l1.82-14.08.5-.2Z"/><path class="cls-1" d="M355.81,1306.73l-.3,2.66L339.56,1297Q347.6,1302,355.81,1306.73Z"/><path class="cls-1" d="M488.43,118.64l-.14,1.28q-9.54,3-18.94,6.23Z"/><path class="cls-1" d="M469.24,126.19l-49.65,19.53Q443.91,135,469.24,126.19Z"/><path class="cls-1" d="M488.43,118.64l-.14,1.28q-9.54,3-18.94,6.23Z"/><path class="cls-1" d="M681.8,1394.53l-9.29,1.26-7.37,1-.69-2.51q4.29.12,8.6.18T681.8,1394.53Z"/><path class="cls-4" d="M840.37,1375.36l-.47,1.18-10.34,1.4C833.17,1377.12,836.78,1376.25,840.37,1375.36Z"/><path class="cls-4" d="M712.25,1393.88l-41.26,5.6,1.52-3.69.54-1.33q4.37.06,8.75.07h1Q697.61,1394.53,712.25,1393.88Z"/><path class="cls-4" d="M1298.36,231.88l-64.7,161.53a655.17,655.17,0,0,0-99.18-121.23l.62-1.52Z"/></svg>